<svg width="230" height="15" viewBox="0 0 230 15" xmlns="http://www.w3.org/2000/svg"><title>watermark_en</title><g fill="none" fill-rule="evenodd"><path d="M.19 14.49V4.187h1.235V6.09h.03C1.9 4.88 2.96 4.02 4.452 4.02c1.504 0 2.592.87 2.978 2.17h.03c.484-1.27 1.69-2.17 3.244-2.17 2.008 0 3.324 1.347 3.324 3.427v7.042h-1.306V7.742c0-1.595-.89-2.556-2.384-2.556-1.523 0-2.572 1.17-2.572 2.813v6.49H6.45V7.624c0-1.476-.95-2.437-2.354-2.437-1.513 0-2.6 1.22-2.6 2.972v6.33H.188zm19.347-.962c1.8 0 3.215-1.278 3.215-2.912v-1.14l-3.047.21c-1.622.108-2.522.81-2.522 1.95 0 1.12.96 1.892 2.354 1.892zm-.267 1.13c-2.028 0-3.412-1.22-3.412-3.022 0-1.763 1.315-2.832 3.69-2.99l3.204-.2v-.89c0-1.486-.94-2.377-2.542-2.377-1.514 0-2.483.74-2.71 1.99h-1.267c.15-1.844 1.662-3.15 4.007-3.15 2.344 0 3.818 1.316 3.818 3.416v7.052H22.81v-1.962h-.028c-.574 1.277-1.98 2.13-3.512 2.13zm10.87 0c-2.6 0-4.4-2.12-4.4-5.32 0-3.21 1.79-5.318 4.372-5.318 1.66 0 2.977.95 3.52 2.288h.03V.198h1.316v14.29h-1.246V12.31h-.03c-.583 1.386-1.9 2.347-3.56 2.347zm.23-9.48c-1.98 0-3.285 1.645-3.285 4.16 0 2.516 1.305 4.16 3.284 4.16 1.956 0 3.302-1.664 3.302-4.16 0-2.486-1.346-4.16-3.304-4.16zm11.018-.01c-1.84 0-3.116 1.417-3.224 3.447h6.35c-.03-2.03-1.266-3.446-3.126-3.446zm3.047 6.4h1.296c-.305 1.782-1.977 3.09-4.242 3.09-2.888 0-4.68-2.02-4.68-5.29 0-3.2 1.812-5.348 4.6-5.348 2.73 0 4.452 2.01 4.452 5.08v.555h-7.706v.08c0 2.327 1.315 3.773 3.363 3.773 1.553 0 2.63-.812 2.918-1.94zm20.14-7.38l-2.918 10.3h-1.385L57.71 5.942h-.03l-2.552 8.55h-1.385L50.815 4.187h1.326l2.306 8.835h.03l2.562-8.835h1.326l2.562 8.835h.03l2.304-8.835h1.315zm1.414 10.3V4.19h1.304v10.3H65.99zm.65-12.38c-.474 0-.87-.386-.87-.87 0-.477.396-.863.87-.863.486 0 .88.386.88.862 0 .485-.394.87-.88.87zm3.56-.495h1.308v2.575h2.027v1.09H71.51v6.616c0 1.06.414 1.515 1.364 1.515.138 0 .633-.02.712-.04v1.12c-.138.027-.692.057-.97.057-1.72 0-2.413-.733-2.413-2.595V5.278H68.67v-1.09h1.533V1.613zm5.284 12.876V.195H76.8V6.09h.03c.525-1.268 1.75-2.07 3.393-2.07 2.256 0 3.68 1.505 3.68 3.813v6.656h-1.315V8.05c0-1.782-1-2.862-2.74-2.862-1.85 0-3.047 1.298-3.047 3.24v6.06h-1.314z" fill="#7D8695"/><path d="M155.38 14.3V.76h2.377V14.3h-2.377zM230 .76v2.376h-4.16V14.3h-2.377V3.135h-4.16V.76H230zm-59.69 8.32V.765h2.377v14.013l-2.377-2.37v-.005l-6.42-6.413v8.31h-2.376V.29l8.796 8.788zM149.036.756h3.21l-6.78 6.774 6.78 6.773h-3.21l-6.304-6.298V14.3h-2.377V.76h2.377v6.295l6.304-6.3zM132.324 12.16c1.28 0 2.44-.517 3.278-1.355l1.68 1.68c-1.268 1.267-3.022 2.052-4.958 2.052-3.873 0-7.013-3.137-7.013-7.007 0-3.87 3.14-7.007 7.015-7.007 1.936 0 3.69.784 4.96 2.052l-1.682 1.68c-.84-.838-1.998-1.357-3.278-1.357-2.56 0-4.636 2.074-4.636 4.632s2.075 4.63 4.635 4.63zm51.64-4.63h4.278v4.954c-1.27 1.268-3.022 2.053-4.96 2.053-3.872 0-7.01-3.137-7.01-7.007 0-3.87 3.138-7.007 7.01-7.007 1.938 0 3.69.784 4.96 2.052l-1.68 1.68c-.84-.838-1.998-1.357-3.28-1.357-2.56 0-4.634 2.074-4.634 4.632s2.075 4.632 4.635 4.632c.956 0 1.844-.29 2.582-.785V9.905h-1.902V7.53zM92.53.29l6.49 6.484L105.51.29V14.3h-2.377V5.99L99.02 10.1l-4.113-4.11v8.31H92.53V.29zm108.314 6.77c1.03.72 1.703 1.91 1.703 3.26 0 2.198-1.783 3.98-3.982 3.98h-6.704V.76h5.754c2.2 0 3.982 1.782 3.982 3.98 0 .867-.283 1.667-.754 2.32zm-2.278 4.864c.886 0 1.604-.718 1.604-1.603s-.718-1.6-1.604-1.6h-4.327v3.205h4.327zm-.95-8.788h-3.377v3.206h3.376c.886 0 1.604-.718 1.604-1.603 0-.887-.717-1.605-1.603-1.605zM211.504.523c3.873 0 7.013 3.137 7.013 7.007 0 3.87-3.14 7.007-7.013 7.007-3.873 0-7.013-3.137-7.013-7.007 0-3.87 3.14-7.007 7.014-7.007zm0 11.638c2.56 0 4.635-2.07 4.635-4.63s-2.076-4.63-4.636-4.63-4.636 2.073-4.636 4.63 2.075 4.63 4.635 4.63zM115.558.525c3.873 0 7.013 3.137 7.013 7.007 0 3.87-3.14 7.008-7.01 7.008-3.874 0-7.014-3.137-7.014-7.007 0-3.87 3.14-7.006 7.013-7.006zm0 11.638c2.56 0 4.636-2.072 4.636-4.63S118.118 2.9 115.558 2.9s-4.636 2.074-4.636 4.632 2.076 4.63 4.636 4.63z" fill="#415058"/></g></svg>