<svg width="69" height="15" viewBox="0 0 69 15" xmlns="http://www.w3.org/2000/svg"><title>watermark_zh</title><g fill="none" fill-rule="evenodd"><path d="M39.737 3.037c-.29.662-.66 1.228-1.08 1.68l-.707-.5c.837-.89 1.368-2.117 1.594-3.7l.837.13c-.095.58-.207 1.098-.352 1.566h2.206V.13h.87v2.083h3.122v.824h-3.123v2.358h3.574v.824h-3.574v1.953h3.156v4.216c0 .87-.436 1.307-1.29 1.307h-.885l-.225-.84.836.05c.483 0 .724-.243.724-.696V8.98h-2.318v5.88h-.87V8.98h-2.366v4.847h-.853V8.174h3.22V6.22H38.24v-.825h3.993V3.037h-2.496zM47.77 1.6h.854v10.047h-.853V1.6zm2.85 13.068h-2.35l-.193-.824c.773.032 1.53.048 2.238.048.547 0 .82-.29.82-.84V.145h.87v13.133c0 .92-.467 1.39-1.384 1.39zm10.45-11.34c-.74 1.583-1.61 2.956-2.61 4.15l-.61-.726C59.363 4.975 60.554 2.714 61.424 0l.87.21c-.258.808-.548 1.55-.838 2.262h7.213v.856h-5.62v2.94h4.877v.872H63.05v2.988h5.007v.857H63.05v3.844h-.87V3.326h-1.11zm-4.846 2.035c-.58.775-1.208 1.52-1.9 2.23l-.274-.92C55.853 4.716 57.14 2.52 57.946.08l.805.372c-.433 1.293-.98 2.488-1.656 3.603V14.83h-.87V5.362z" fill="#7D8695"/><path d="M2.446 3.73H6.45V1.416H2.445V3.73zm5.81 0h4.005V1.416H8.26V3.73zm6.2 4.117v1.415H.25V7.847h6.2v-.643H.51V5.79h5.94v-.644H.637V0h13.43v5.146H8.26v.643h5.94v1.413H8.26v.643h6.198zm-6.19 5.476h6.456v1.415H0v-1.415h6.457v-.515h-6.2v-1.415h6.2V9.72h1.808v1.673h6.2v1.415h-6.2v.515zM5.052 1.993h-1.55L3.76 3.28h1.55l-.257-1.286zm6.005 1.287l.258-1.286h-1.55L9.508 3.28h1.55zM2.05 11.007H.5L.76 9.72h1.548l-.258 1.287zm3.003 0h-1.55L3.76 9.72h1.55l-.257 1.287zm4.713 0L9.508 9.72h1.55l.258 1.287h-1.55zm2.753 0l-.26-1.286h1.55l.257 1.288h-1.55zM19.06 0H33.35v14.666h-2.325V2.316H25.67c-.053.875-.158 2.556-.262 4.177-.34 5.285-3.37 7.465-6.03 8.507l-1.113-2.114c2.668-.858 4.657-3.026 4.87-6.72.082-1.436.178-2.92.24-3.85h-4.312V0z" fill="#415058"/></g></svg>